<svg width="28" height="28" viewBox="0 0 28 28" fill="none" xmlns="http://www.w3.org/2000/svg">
<path d="M21.35 6.66165C21.2421 6.5535 21.1139 6.46769 20.9727 6.40915C20.8316 6.3506 20.6803 6.32047 20.5275 6.32047C20.3747 6.32047 20.2234 6.3506 20.0823 6.40915C19.9412 6.46769 19.8129 6.5535 19.705 6.66165L14 12.355L8.29502 6.64999C8.187 6.54197 8.05878 6.45629 7.91765 6.39784C7.77653 6.33938 7.62527 6.3093 7.47252 6.3093C7.31976 6.3093 7.16851 6.33938 7.02738 6.39784C6.88626 6.45629 6.75803 6.54197 6.65002 6.64999C6.542 6.758 6.45632 6.88623 6.39787 7.02735C6.33941 7.16848 6.30933 7.31973 6.30933 7.47249C6.30933 7.62524 6.33941 7.7765 6.39787 7.91762C6.45632 8.05874 6.542 8.18697 6.65002 8.29499L12.355 14L6.65002 19.705C6.542 19.813 6.45632 19.9412 6.39787 20.0824C6.33941 20.2235 6.30933 20.3747 6.30933 20.5275C6.30933 20.6802 6.33941 20.8315 6.39787 20.9726C6.45632 21.1137 6.542 21.242 6.65002 21.35C6.75803 21.458 6.88626 21.5437 7.02738 21.6021C7.16851 21.6606 7.31976 21.6907 7.47252 21.6907C7.62527 21.6907 7.77653 21.6606 7.91765 21.6021C8.05878 21.5437 8.187 21.458 8.29502 21.35L14 15.645L19.705 21.35C19.813 21.458 19.9413 21.5437 20.0824 21.6021C20.2235 21.6606 20.3748 21.6907 20.5275 21.6907C20.6803 21.6907 20.8315 21.6606 20.9726 21.6021C21.1138 21.5437 21.242 21.458 21.35 21.35C21.458 21.242 21.5437 21.1137 21.6022 20.9726C21.6606 20.8315 21.6907 20.6802 21.6907 20.5275C21.6907 20.3747 21.6606 20.2235 21.6022 20.0824C21.5437 19.9412 21.458 19.813 21.35 19.705L15.645 14L21.35 8.29499C21.7933 7.85165 21.7933 7.10499 21.35 6.66165Z" fill="black"/>
</svg>
