<svg width="44" height="44" viewBox="0 0 44 44" fill="none" xmlns="http://www.w3.org/2000/svg">
<path d="M22.0001 3.66675C26.9812 3.66675 27.6027 3.68508 29.5571 3.77675C31.5096 3.86841 32.8387 4.17458 34.0084 4.62925C35.2184 5.09491 36.2378 5.72558 37.2571 6.74308C38.1893 7.65956 38.9107 8.76816 39.3709 9.99175C39.8237 11.1596 40.1317 12.4906 40.2234 14.4431C40.3096 16.3974 40.3334 17.0189 40.3334 22.0001C40.3334 26.9812 40.3151 27.6027 40.2234 29.5571C40.1317 31.5096 39.8237 32.8387 39.3709 34.0084C38.912 35.2327 38.1905 36.3415 37.2571 37.2571C36.3403 38.189 35.2318 38.9103 34.0084 39.3709C32.8406 39.8237 31.5096 40.1317 29.5571 40.2234C27.6027 40.3096 26.9812 40.3334 22.0001 40.3334C17.0189 40.3334 16.3974 40.3151 14.4431 40.2234C12.4906 40.1317 11.1614 39.8237 9.99175 39.3709C8.76768 38.9116 7.65888 38.1901 6.74308 37.2571C5.81066 36.3408 5.08929 35.2321 4.62925 34.0084C4.17458 32.8406 3.86841 31.5096 3.77675 29.5571C3.69058 27.6027 3.66675 26.9812 3.66675 22.0001C3.66675 17.0189 3.68508 16.3974 3.77675 14.4431C3.86841 12.4887 4.17458 11.1614 4.62925 9.99175C5.08801 8.76741 5.80955 7.6585 6.74308 6.74308C7.65914 5.81034 8.76787 5.08892 9.99175 4.62925C11.1614 4.17458 12.4887 3.86841 14.4431 3.77675C16.3974 3.69058 17.0189 3.66675 22.0001 3.66675ZM22.0001 12.8334C19.5689 12.8334 17.2374 13.7992 15.5183 15.5183C13.7992 17.2374 12.8334 19.5689 12.8334 22.0001C12.8334 24.4312 13.7992 26.7628 15.5183 28.4819C17.2374 30.201 19.5689 31.1667 22.0001 31.1667C24.4312 31.1667 26.7628 30.201 28.4819 28.4819C30.201 26.7628 31.1667 24.4312 31.1667 22.0001C31.1667 19.5689 30.201 17.2374 28.4819 15.5183C26.7628 13.7992 24.4312 12.8334 22.0001 12.8334ZM33.9167 12.3751C33.9167 11.7673 33.6753 11.1844 33.2455 10.7546C32.8158 10.3249 32.2329 10.0834 31.6251 10.0834C31.0173 10.0834 30.4344 10.3249 30.0046 10.7546C29.5749 11.1844 29.3334 11.7673 29.3334 12.3751C29.3334 12.9829 29.5749 13.5658 30.0046 13.9955C30.4344 14.4253 31.0173 14.6667 31.6251 14.6667C32.2329 14.6667 32.8158 14.4253 33.2455 13.9955C33.6753 13.5658 33.9167 12.9829 33.9167 12.3751ZM22.0001 16.5001C23.4588 16.5001 24.8577 17.0795 25.8892 18.111C26.9206 19.1424 27.5001 20.5414 27.5001 22.0001C27.5001 23.4588 26.9206 24.8577 25.8892 25.8892C24.8577 26.9206 23.4588 27.5001 22.0001 27.5001C20.5414 27.5001 19.1424 26.9206 18.111 25.8892C17.0795 24.8577 16.5001 23.4588 16.5001 22.0001C16.5001 20.5414 17.0795 19.1424 18.111 18.111C19.1424 17.0795 20.5414 16.5001 22.0001 16.5001Z" fill="#16B0E4"/>
</svg>
