<svg width="60" height="60" viewBox="0 0 60 60" fill="none" xmlns="http://www.w3.org/2000/svg">
<path d="M24.1 40.9C27.35 44.15 32.65 44.15 35.9 40.9C39.15 37.65 39.15 32.35 35.9 29.1L24.1 40.9ZM45 5.025L15 5C12.225 5 10 7.225 10 10V50C10 52.775 12.225 55 15 55H45C47.775 55 50 52.775 50 50V10C50 7.225 47.775 5.025 45 5.025ZM27.5 12.5C28.875 12.5 30 13.625 30 15C30 16.375 28.875 17.5 27.5 17.5C26.125 17.5 25 16.375 25 15C25 13.625 26.125 12.5 27.5 12.5ZM20 12.5C21.375 12.5 22.5 13.625 22.5 15C22.5 16.375 21.375 17.5 20 17.5C18.625 17.5 17.5 16.375 17.5 15C17.5 13.625 18.625 12.5 20 12.5ZM30 47.5C23.1 47.5 17.5 41.9 17.5 35C17.5 28.1 23.1 22.5 30 22.5C36.9 22.5 42.5 28.1 42.5 35C42.5 41.9 36.9 47.5 30 47.5Z" fill="#16B0E4"/>
</svg>
