<svg width="28" height="28" viewBox="0 0 28 28" fill="none" xmlns="http://www.w3.org/2000/svg">
<path d="M14 13.9999C14.6416 13.9999 15.1911 13.7713 15.6485 13.3139C16.1058 12.8566 16.3341 12.3075 16.3333 11.6666C16.3333 11.0249 16.1046 10.4754 15.6473 10.0181C15.19 9.56075 14.6408 9.33247 14 9.33325C13.3583 9.33325 12.8088 9.56192 12.3515 10.0193C11.8941 10.4766 11.6658 11.0257 11.6666 11.6666C11.6666 12.3083 11.8953 12.8578 12.3526 13.3151C12.81 13.7724 13.3591 14.0007 14 13.9999ZM14 25.6666C10.8694 23.0027 8.5314 20.5286 6.98596 18.2443C5.44051 15.9599 4.6674 13.8451 4.66663 11.8999C4.66663 8.98325 5.60502 6.65964 7.48179 4.92909C9.35857 3.19853 11.5313 2.33325 14 2.33325C16.4694 2.33325 18.6425 3.19853 20.5193 4.92909C22.3961 6.65964 23.3341 8.98325 23.3333 11.8999C23.3333 13.8444 22.5602 15.9591 21.014 18.2443C19.4677 20.5294 17.1297 23.0035 14 25.6666Z" fill="#16B0E4"/>
</svg>
