<svg width="44" height="44" viewBox="0 0 44 44" fill="none" xmlns="http://www.w3.org/2000/svg">
<path d="M22 2.75C11.3695 2.75 2.75 11.3695 2.75 22C2.75 32.6305 11.3695 41.25 22 41.25C32.6305 41.25 41.25 32.6305 41.25 22C41.25 11.3695 32.6305 2.75 22 2.75ZM31.2512 17.2605C31.2641 17.4625 31.2641 17.673 31.2641 17.8793C31.2641 24.1871 26.4602 31.4531 17.6816 31.4531C14.9746 31.4531 12.4652 30.6668 10.3512 29.3133C10.7379 29.3563 11.1074 29.3734 11.5027 29.3734C13.7371 29.3734 15.791 28.6172 17.4281 27.3367C15.3313 27.2938 13.5695 25.9188 12.968 24.0281C13.7027 24.1355 14.3645 24.1355 15.1207 23.9422C14.041 23.7228 13.0706 23.1364 12.3742 22.2827C11.6779 21.4289 11.2986 20.3603 11.3008 19.2586V19.1984C11.9324 19.5551 12.6758 19.7742 13.4535 19.8043C12.7997 19.3686 12.2635 18.7782 11.8925 18.0857C11.5215 17.3931 11.3271 16.6197 11.3266 15.834C11.3266 14.9445 11.5586 14.1324 11.9754 13.4277C13.1738 14.903 14.6692 16.1096 16.3645 16.9691C18.0598 17.8285 19.9169 18.3217 21.8152 18.4164C21.1406 15.1723 23.5641 12.5469 26.4773 12.5469C27.8523 12.5469 29.0898 13.1227 29.9621 14.0508C31.0406 13.8488 32.0719 13.4449 32.9914 12.9035C32.6348 14.0078 31.8871 14.9402 30.8945 15.5289C31.857 15.4258 32.7852 15.1594 33.6445 14.7855C32.9957 15.7395 32.1836 16.5859 31.2512 17.2605Z" fill="#16B0E4"/>
</svg>
